<?xml version="1.0" standalone="no"?>
<!DOCTYPE svg PUBLIC "-//W3C//DTD SVG 20010904//EN"
    "http://www.w3.org/TR/2001/REC-SVG-20010904/DTD/svg10.dtd">
<svg version="1.0" xmlns="http://www.w3.org/2000/svg"
     width="820.000000pt" height="730.000000pt" viewBox="0 0 820.000000 730.000000"
     preserveAspectRatio="xMidYMid meet">
    <metadata>
        Created by potrace 1.15, written by Peter Selinger 2001-2017
    </metadata>
    <g transform="translate(0.000000,730.000000) scale(0.100000,-0.100000)"
       fill="#000000" stroke="none">
        <path d="M3050 6594 c-14 -2 -65 -9 -115 -15 -340 -42 -713 -208 -939 -418
-45 -42 -106 -114 -333 -395 -141 -173 -218 -324 -268 -519 -23 -90 -52 -295
-57 -390 -2 -46 -3 -48 -44 -66 -74 -33 -166 -102 -255 -190 -235 -236 -389
-597 -456 -1071 -25 -180 -25 -740 0 -920 25 -178 62 -336 91 -384 36 -61 210
-240 375 -388 608 -541 1327 -932 2046 -1112 351 -87 532 -109 1175 -137 237
-10 625 -7 790 6 383 32 652 71 895 130 694 167 1149 479 1334 915 57 132 74
214 69 323 -5 93 -8 103 -53 195 -41 82 -62 111 -139 187 -50 50 -112 104
-138 120 -60 38 -62 60 -8 108 45 41 111 76 190 102 213 68 346 203 358 364
11 159 -77 323 -301 559 -197 209 -202 214 -190 219 7 3 46 26 87 53 206 135
370 361 420 582 41 175 57 498 31 632 -19 106 -71 239 -122 316 -49 74 -154
182 -228 235 -108 77 -214 121 -650 268 -236 80 -449 152 -473 161 -24 9 -67
35 -95 60 -64 54 -201 143 -287 186 -98 49 -284 107 -402 124 -347 52 -821
-39 -999 -192 -24 -21 -54 -36 -77 -39 -49 -7 -119 13 -132 36 -14 26 -150
112 -290 182 -129 64 -308 128 -435 154 -76 16 -322 28 -375 19z m1684 -1114
c209 -45 339 -113 471 -245 146 -145 199 -271 199 -465 -1 -201 -55 -344 -180
-467 -152 -150 -385 -223 -715 -223 -410 0 -796 102 -1063 280 -52 35 -155
129 -309 284 -225 224 -234 232 -312 265 -44 19 -109 50 -144 69 l-63 35 38
24 c59 36 129 54 244 63 120 9 148 19 415 138 357 159 603 232 895 266 19 2
123 3 230 1 153 -3 217 -8 294 -25z m1958 -75 c231 -14 483 -92 638 -198 70
-48 166 -151 210 -226 l40 -68 -10 -169 c-16 -240 -14 -235 -110 -327 -130
-123 -324 -209 -540 -237 -261 -33 -602 22 -945 155 -215 83 -284 132 -351
251 -56 100 -76 195 -78 369 -1 149 -1 150 29 204 48 88 132 144 267 180 106
29 342 62 498 71 132 7 172 6 352 -5z m-146 -3088 c251 -187 370 -318 362
-399 -4 -45 -39 -62 -293 -147 -464 -154 -809 -210 -1218 -198 -195 6 -221 9
-822 102 -325 51 -392 68 -614 156 -202 81 -576 272 -566 289 3 5 40 17 83 27
105 25 360 24 487 -1 191 -38 419 -125 617 -238 286 -162 592 -268 771 -268
137 1 291 61 396 157 86 77 121 134 121 192 -1 82 -73 222 -166 322 -55 57
-75 49 191 79 105 12 244 29 310 40 66 10 129 18 141 19 12 1 95 -54 200 -132z"/>
        <path d="M4303 5246 c-206 -50 -353 -237 -353 -451 0 -131 52 -247 151 -339
63 -58 118 -88 204 -111 313 -81 618 199 566 519 -44 271 -304 446 -568 382z
m264 -396 c93 -56 74 -195 -31 -230 -89 -29 -188 70 -155 157 31 83 116 116
186 73z"/>
        <path d="M6566 5299 c-83 -13 -187 -72 -249 -139 -94 -101 -134 -214 -124
-350 16 -234 193 -411 427 -427 137 -10 249 30 350 124 190 176 195 481 11
663 -113 112 -256 156 -415 129z m235 -475 c39 -20 73 -91 63 -131 -17 -67
-64 -103 -134 -103 -32 0 -48 7 -76 33 -110 101 14 270 147 201z"/>
    </g>
</svg>
